# Blender v2.79 (sub 0) OBJ File: ''
# www.blender.org
mtllib Bucket.mtl
o Cube
v -0.733239 -0.209338 -0.684261
v 1.052652 -0.209338 -0.684260
v 1.052652 -0.209338 1.101631
v -0.739721 -0.424799 1.123048
v -0.739721 -0.424799 -0.662843
v 1.046170 -0.424799 -0.662843
v 1.046170 -0.424799 1.123049
v -0.739721 1.361092 1.123048
v -0.739720 1.361092 -0.662843
v 1.046170 1.361092 1.123048
v -0.843217 -0.531739 1.222188
v -0.843217 -0.531739 -0.777812
v 1.156783 -0.531739 -0.777812
v 1.156783 -0.531739 1.222188
v -0.843217 1.468261 1.222187
v -0.843216 1.468261 -0.777813
v 1.156784 1.468261 -0.777812
v 1.156783 1.468261 1.222188
v -0.733240 1.468261 1.101630
v -0.733240 1.361092 1.101630
v -0.733239 -0.209338 -0.662843
v -0.733239 1.468261 -0.684261
v -0.733239 1.361092 -0.662843
v 1.052652 1.468261 -0.684260
v 1.046170 -0.209338 -0.662843
v 1.052652 1.468261 1.101631
v 1.046170 -0.209338 1.101631
v 1.046170 1.361092 1.101631
vn -0.0000 0.0000 1.0000
vn -1.0000 0.0000 -0.0000
vn 0.0000 1.0000 0.0000
vn 0.0000 -1.0000 0.0000
vn 1.0000 -0.0000 0.0000
vn 0.0000 -0.0000 -1.0000
usemtl Material
s off
f 1//1 2//1 24//1 22//1
f 2//2 3//2 26//2 24//2
f 4//3 7//3 6//3 5//3
f 8//4 9//4 23//4 20//4 28//4 10//4
f 4//5 5//5 9//5 8//5
f 5//1 6//1 25//1 21//1 23//1 9//1
f 6//2 7//2 10//2 28//2 27//2 25//2
f 8//6 10//6 7//6 4//6
f 11//4 12//4 13//4 14//4
f 15//3 18//3 17//3 24//3 26//3 19//3
f 11//2 15//2 16//2 12//2
f 12//6 16//6 17//6 13//6
f 13//5 17//5 18//5 14//5
f 15//1 11//1 14//1 18//1
f 26//6 3//6 27//6 28//6 20//6 19//6
f 21//5 1//5 22//5 19//5 20//5 23//5
f 27//3 3//3 2//3 1//3 21//3 25//3
f 19//3 22//3 24//3 17//3 16//3 15//3
